<svg width="528" height="103" viewBox="0 0 528 103" fill="none" xmlns="http://www.w3.org/2000/svg">
<path d="M496.311 79.296C491.533 79.296 487.463 78.064 484.103 75.6C480.743 73.0613 478.167 69.6267 476.375 65.296C474.658 60.8907 473.799 55.9253 473.799 50.4C473.799 44.2027 474.807 38.976 476.823 34.72C478.839 30.464 481.565 27.216 484.999 24.976C488.434 22.736 492.205 21.616 496.311 21.616C498.925 21.616 501.463 22.176 503.927 23.296C506.391 24.416 508.519 26.2453 510.311 28.784C512.103 31.3227 513.298 34.7947 513.895 39.2L510.871 36.736V0H527.671V78.064H510.871V64.4L514.343 61.04C513.447 66.192 511.991 70.0747 509.975 72.688C507.959 75.3013 505.719 77.056 503.255 77.952C500.866 78.848 498.551 79.296 496.311 79.296ZM501.575 63.84C503.89 63.84 505.831 63.3173 507.399 62.272C509.042 61.152 510.274 59.584 511.095 57.568C511.991 55.552 512.439 53.1627 512.439 50.4C512.439 47.6373 511.991 45.2853 511.095 43.344C510.274 41.328 509.042 39.7973 507.399 38.752C505.831 37.632 503.89 37.072 501.575 37.072C499.335 37.072 497.394 37.5947 495.751 38.64C494.109 39.6853 492.839 41.216 491.943 43.232C491.122 45.1733 490.711 47.5627 490.711 50.4C490.711 53.2373 491.122 55.664 491.943 57.68C492.839 59.696 494.109 61.2267 495.751 62.272C497.394 63.3173 499.335 63.84 501.575 63.84Z" fill="#C83B01"/>
<path d="M434.48 78.064V22.848H451.504V37.968H449.488C449.563 34.832 450.347 32.032 451.84 29.568C453.408 27.104 455.387 25.1627 457.776 23.744C460.24 22.3253 462.779 21.616 465.392 21.616C467.334 21.616 469.163 21.9147 470.88 22.512C472.672 23.0347 474.539 23.9307 476.48 25.2L468.416 40.432C467.67 39.9093 466.624 39.4613 465.28 39.088C463.936 38.64 462.592 38.416 461.248 38.416C459.979 38.416 458.747 38.64 457.552 39.088C456.432 39.536 455.424 40.2453 454.528 41.216C453.707 42.112 453.035 43.2693 452.512 44.688C452.139 45.7333 451.84 47.0773 451.616 48.72C451.467 50.288 451.392 52.64 451.392 55.776V78.064H434.48Z" fill="#C83B01"/>
<path d="M412.102 78.064L410.758 71.568V43.008C410.758 40.3947 409.825 38.528 407.958 37.408C406.092 36.288 403.777 35.728 401.014 35.728C398.102 35.728 395.004 36.288 391.718 37.408C388.433 38.4533 385.67 39.76 383.43 41.328L376.262 29.456C380.668 26.544 384.924 24.528 389.03 23.408C393.212 22.2133 397.692 21.616 402.47 21.616C410.31 21.616 416.433 23.5573 420.838 27.44C425.318 31.248 427.558 36.4373 427.558 43.008V78.064H412.102ZM396.534 79.296C392.577 79.296 388.956 78.5493 385.67 77.056C382.46 75.488 379.884 73.2853 377.942 70.448C376.076 67.6107 375.142 64.3253 375.142 60.592C375.142 57.3813 375.814 54.5813 377.158 52.192C378.577 49.8027 380.444 47.9733 382.758 46.704C384.476 45.7333 386.417 45.024 388.582 44.576C390.748 44.128 393.062 43.904 395.526 43.904H412.102V56.336H397.99C397.094 56.336 396.273 56.4107 395.526 56.56C394.854 56.7093 394.257 56.9707 393.734 57.344C393.212 57.7173 392.801 58.2027 392.502 58.8C392.204 59.3227 392.054 59.92 392.054 60.592C392.054 62.16 392.689 63.4293 393.958 64.4C395.302 65.296 397.057 65.744 399.222 65.744C401.313 65.744 403.217 65.3333 404.934 64.512C406.726 63.616 408.145 62.4213 409.19 60.928C410.236 59.4347 410.758 57.7173 410.758 55.776L414.342 65.296C412.924 69.104 411.206 72.016 409.19 74.032C407.249 76.048 405.158 77.4293 402.918 78.176C400.753 78.9227 398.625 79.296 396.534 79.296Z" fill="#C83B01"/>
<path d="M337.379 79.296C332.526 79.296 328.568 78.3627 325.507 76.496C322.446 74.5547 320.206 71.904 318.787 68.544C317.368 65.184 316.659 61.3387 316.659 57.008V22.848H333.571V53.536C333.571 55.328 333.758 57.0827 334.131 58.8C334.504 60.4427 335.326 61.824 336.595 62.944C337.864 64.064 339.843 64.624 342.531 64.624C345.966 64.624 348.355 63.5787 349.699 61.488C351.118 59.3973 351.976 56.56 352.275 52.976C352.574 49.392 352.723 45.4347 352.723 41.104V22.848H369.635V78.064H352.723V65.968L354.403 67.872C352.611 72.2027 350.184 75.1893 347.123 76.832C344.136 78.4747 340.888 79.296 337.379 79.296Z" fill="#C83B01"/>
<path d="M286.607 102.144C278.17 102.144 271.524 100.651 266.671 97.664C261.892 94.752 259.503 90.7573 259.503 85.68C259.503 85.1573 259.54 84.56 259.615 83.888C259.69 83.2907 259.802 82.656 259.951 81.984L276.639 72.576L280.223 77.504L273.727 85.456C273.652 85.6053 273.615 85.7173 273.615 85.792C273.615 85.9413 273.615 86.0907 273.615 86.24C273.615 87.6587 274.735 88.816 276.975 89.712C279.29 90.608 282.5 91.056 286.607 91.056C289.892 91.056 292.282 90.6453 293.775 89.824C295.268 89.0773 296.015 88.1067 296.015 86.912C296.015 86.3147 295.828 85.8293 295.455 85.456C295.156 85.0827 294.522 84.7467 293.551 84.448C292.655 84.1493 291.348 83.8507 289.631 83.552C287.914 83.328 285.711 83.0667 283.023 82.768C279.588 82.3947 276.191 81.6853 272.831 80.64C269.471 79.6693 266.671 78.176 264.431 76.16C262.191 74.0693 261.071 71.3067 261.071 67.872C261.071 64.736 262.116 61.8613 264.207 59.248C266.372 56.6347 269.21 54.5067 272.719 52.864L279.775 59.248C278.207 59.3973 276.9 59.92 275.855 60.816C274.884 61.712 274.399 62.7573 274.399 63.952C274.399 64.9973 274.847 65.8187 275.743 66.416C276.714 67.0133 278.058 67.4613 279.775 67.76C281.492 68.0587 283.508 68.3573 285.823 68.656C289.855 69.104 293.514 69.6267 296.799 70.224C300.159 70.8213 303.034 71.68 305.423 72.8C307.812 73.8453 309.642 75.3387 310.911 77.28C312.18 79.1467 312.815 81.6107 312.815 84.672C312.815 90.3467 310.575 94.6773 306.095 97.664C301.615 100.651 295.119 102.144 286.607 102.144ZM285.599 63.84C280.746 63.84 276.49 62.944 272.831 61.152C269.247 59.2853 266.447 56.784 264.431 53.648C262.415 50.512 261.407 46.928 261.407 42.896C261.407 38.5653 262.49 34.832 264.655 31.696C266.82 28.4853 269.695 26.0213 273.279 24.304C276.938 22.512 280.858 21.616 285.039 21.616C289.22 21.616 293.103 22.512 296.687 24.304C300.346 26.0213 303.295 28.5227 305.535 31.808C307.775 35.0933 308.895 38.976 308.895 43.456C308.895 47.5627 307.924 51.1467 305.983 54.208C304.042 57.2693 301.316 59.6587 297.807 61.376C294.298 63.0187 290.228 63.84 285.599 63.84ZM285.263 50.624C287.727 50.624 289.482 49.8773 290.527 48.384C291.572 46.816 292.095 44.9867 292.095 42.896C292.095 40.7307 291.498 38.976 290.303 37.632C289.108 36.288 287.428 35.616 285.263 35.616C283.023 35.616 281.306 36.288 280.111 37.632C278.916 38.976 278.319 40.7307 278.319 42.896C278.319 44.9867 278.842 46.816 279.887 48.384C280.932 49.8773 282.724 50.624 285.263 50.624ZM305.087 35.392L292.879 27.664L306.431 17.024L315.055 27.44L305.087 35.392Z" fill="#C83B01"/>
<path d="M229.225 79.296C223.775 79.296 218.884 78.064 214.554 75.6C210.298 73.0613 206.937 69.6267 204.473 65.296C202.009 60.8907 200.778 55.9253 200.778 50.4C200.778 44.8 202.009 39.8347 204.473 35.504C206.937 31.1733 210.298 27.776 214.554 25.312C218.884 22.848 223.775 21.616 229.225 21.616C234.676 21.616 239.529 22.848 243.785 25.312C248.041 27.776 251.402 31.1733 253.866 35.504C256.33 39.8347 257.561 44.8 257.561 50.4C257.561 55.9253 256.33 60.8907 253.866 65.296C251.402 69.6267 248.041 73.0613 243.785 75.6C239.529 78.064 234.676 79.296 229.225 79.296ZM229.225 64.512C231.689 64.512 233.78 63.9893 235.498 62.944C237.215 61.824 238.484 60.2187 239.306 58.128C240.201 55.9627 240.65 53.3867 240.65 50.4C240.65 47.3387 240.201 44.8 239.306 42.784C238.484 40.6933 237.215 39.1253 235.498 38.08C233.78 36.96 231.689 36.4 229.225 36.4C226.761 36.4 224.671 36.96 222.953 38.08C221.236 39.1253 219.929 40.6933 219.033 42.784C218.137 44.8 217.69 47.3387 217.69 50.4C217.69 53.3867 218.137 55.9627 219.033 58.128C219.929 60.2187 221.236 61.824 222.953 62.944C224.671 63.9893 226.761 64.512 229.225 64.512Z" fill="#FF8352"/>
<path d="M178.847 78.064V22.848H195.759V78.064H178.847ZM178.735 15.232V0H195.983V15.232H178.735Z" fill="#FF8352"/>
<path d="M87.9541 78.064V22.848H104.866V37.296L101.058 41.216C101.581 37.1093 102.514 33.7867 103.858 31.248C105.202 28.6347 106.77 26.656 108.562 25.312C110.429 23.8933 112.333 22.9227 114.274 22.4C116.29 21.8773 118.194 21.616 119.986 21.616C122.525 21.616 125.138 22.1013 127.826 23.072C130.514 24.0427 132.903 25.8347 134.994 28.448C137.159 31.0613 138.653 34.8693 139.474 39.872L129.282 44.576C130.402 38.3787 132.157 33.6373 134.546 30.352C137.01 27.0667 139.698 24.7893 142.61 23.52C145.597 22.2507 148.471 21.616 151.234 21.616C156.087 21.616 160.007 22.6613 162.994 24.752C166.055 26.8427 168.295 29.4933 169.714 32.704C171.207 35.84 171.954 39.088 171.954 42.448V78.064H155.042V46.592C155.042 44.2027 154.706 42.2613 154.034 40.768C153.437 39.2 152.541 38.08 151.346 37.408C150.226 36.6613 148.845 36.288 147.202 36.288C145.186 36.288 143.506 36.848 142.162 37.968C140.893 39.0133 139.922 40.656 139.25 42.896C138.653 45.0613 138.354 47.8613 138.354 51.296V78.064H121.554V46.592C121.554 43.1573 120.882 40.5813 119.538 38.864C118.269 37.1467 116.477 36.288 114.162 36.288C112.071 36.288 110.317 36.848 108.898 37.968C107.554 39.0133 106.546 40.656 105.874 42.896C105.202 45.0613 104.866 47.8613 104.866 51.296V78.064H87.9541Z" fill="#FF8352"/>
<path d="M47.9509 79.296C43.0975 79.296 39.1402 78.3627 36.0789 76.496C33.0175 74.5547 30.7775 71.904 29.3589 68.544C27.9402 65.184 27.2309 61.3387 27.2309 57.008V22.848H44.1429V53.536C44.1429 55.328 44.3295 57.0827 44.7029 58.8C45.0762 60.4427 45.8975 61.824 47.1669 62.944C48.4362 64.064 50.4149 64.624 53.1029 64.624C56.5375 64.624 58.9269 63.5787 60.2709 61.488C61.6895 59.3973 62.5482 56.56 62.8469 52.976C63.1455 49.392 63.2949 45.4347 63.2949 41.104V22.848H80.2069V78.064H63.2949V65.968L64.9749 67.872C63.1829 72.2027 60.7562 75.1893 57.6949 76.832C54.7082 78.4747 51.4602 79.296 47.9509 79.296Z" fill="#FF8352"/>
<path d="M14.336 79.296C10.304 79.296 6.90667 78.1013 4.144 75.712C1.38133 73.248 0 69.3653 0 64.064V0H16.8V60.704C16.8 61.824 17.0987 62.608 17.696 63.056C18.368 63.504 19.1893 63.728 20.16 63.728C20.7573 63.728 21.3173 63.6907 21.84 63.616C22.4373 63.4667 23.0347 63.3173 23.632 63.168V77.504C21.9147 78.176 20.2347 78.624 18.592 78.848C17.024 79.1467 15.6053 79.296 14.336 79.296Z" fill="#FF8352"/>
</svg>
